<mxfile host="Electron" modified="2023-08-27T04:22:07.640Z" agent="Mozilla/5.0 (Macintosh; Intel Mac OS X 10_15_7) AppleWebKit/537.36 (KHTML, like Gecko) draw.io/21.6.8 Chrome/114.0.5735.289 Electron/25.5.0 Safari/537.36" etag="j9BmhNm_T8UlnnClP7fq" version="21.6.8" type="device">
  <diagram name="페이지-1" id="Hrek77ROUkf-Zb7oQ3Rz">
    <mxGraphModel dx="839" dy="731" grid="1" gridSize="10" guides="1" tooltips="1" connect="1" arrows="1" fold="1" page="1" pageScale="1" pageWidth="827" pageHeight="1169" math="0" shadow="0">
      <root>
        <mxCell id="0" />
        <mxCell id="1" parent="0" />
        <mxCell id="4kxy53bT3sSl8HHj_inK-1" value="" style="rounded=0;whiteSpace=wrap;html=1;fillColor=#f5f5f5;fontColor=#333333;strokeColor=#666666;" parent="1" vertex="1">
          <mxGeometry x="390" y="530" width="220" height="135" as="geometry" />
        </mxCell>
        <mxCell id="4kxy53bT3sSl8HHj_inK-3" value="&lt;p style=&quot;margin:0px;margin-top:4px;text-align:center;&quot;&gt;&lt;b&gt;&lt;i&gt;AbstractClass&lt;/i&gt;&lt;/b&gt;&lt;/p&gt;&lt;hr size=&quot;1&quot;&gt;&lt;p style=&quot;margin:0px;margin-left:4px;&quot;&gt;&lt;br&gt;&lt;/p&gt;&lt;hr size=&quot;1&quot;&gt;&lt;p style=&quot;margin:0px;margin-left:4px;&quot;&gt;+ templateMethod()&lt;/p&gt;&lt;p style=&quot;margin:0px;margin-left:4px;&quot;&gt;&lt;i&gt;# primitiveOperation1()&lt;/i&gt;&lt;/p&gt;&lt;p style=&quot;margin:0px;margin-left:4px;&quot;&gt;&lt;i&gt;# primitiveOperation2()&lt;/i&gt;&lt;/p&gt;" style="verticalAlign=top;align=left;overflow=fill;fontSize=12;fontFamily=Helvetica;html=1;whiteSpace=wrap;" parent="1" vertex="1">
          <mxGeometry x="230" y="210" width="160" height="110" as="geometry" />
        </mxCell>
        <mxCell id="4kxy53bT3sSl8HHj_inK-4" value="&lt;p style=&quot;margin:0px;margin-top:4px;text-align:center;&quot;&gt;&lt;b&gt;ConcreteClass&lt;/b&gt;&lt;/p&gt;&lt;hr size=&quot;1&quot;&gt;&lt;p style=&quot;margin:0px;margin-left:4px;&quot;&gt;&lt;br&gt;&lt;/p&gt;&lt;hr size=&quot;1&quot;&gt;&lt;p style=&quot;margin:0px;margin-left:4px;&quot;&gt;# primitiveOperation1()&lt;/p&gt;&lt;p style=&quot;margin:0px;margin-left:4px;&quot;&gt;# primitiveOperation2()&lt;/p&gt;" style="verticalAlign=top;align=left;overflow=fill;fontSize=12;fontFamily=Helvetica;html=1;whiteSpace=wrap;" parent="1" vertex="1">
          <mxGeometry x="230" y="380" width="160" height="90" as="geometry" />
        </mxCell>
        <mxCell id="4kxy53bT3sSl8HHj_inK-7" style="edgeStyle=orthogonalEdgeStyle;rounded=0;orthogonalLoop=1;jettySize=auto;html=1;exitX=0;exitY=0.5;exitDx=0;exitDy=0;dashed=1;endArrow=oval;endFill=0;" parent="1" source="4kxy53bT3sSl8HHj_inK-28" edge="1">
          <mxGeometry relative="1" as="geometry">
            <mxPoint x="441" y="290" as="sourcePoint" />
            <mxPoint x="361" y="290" as="targetPoint" />
            <Array as="points">
              <mxPoint x="470" y="290" />
            </Array>
          </mxGeometry>
        </mxCell>
        <mxCell id="4kxy53bT3sSl8HHj_inK-10" value="" style="endArrow=block;html=1;rounded=0;entryX=0.5;entryY=1;entryDx=0;entryDy=0;exitX=0.5;exitY=0;exitDx=0;exitDy=0;endFill=0;" parent="1" source="4kxy53bT3sSl8HHj_inK-4" target="4kxy53bT3sSl8HHj_inK-3" edge="1">
          <mxGeometry width="50" height="50" relative="1" as="geometry">
            <mxPoint x="468.4799999999999" y="380" as="sourcePoint" />
            <mxPoint x="391.5199999999999" y="318.96000000000004" as="targetPoint" />
          </mxGeometry>
        </mxCell>
        <mxCell id="4kxy53bT3sSl8HHj_inK-14" value="" style="endArrow=block;html=1;rounded=0;entryX=0;entryY=0.5;entryDx=0;entryDy=0;exitX=1;exitY=0.5;exitDx=0;exitDy=0;endFill=0;" parent="1" source="4kxy53bT3sSl8HHj_inK-15" target="4kxy53bT3sSl8HHj_inK-16" edge="1">
          <mxGeometry width="50" height="50" relative="1" as="geometry">
            <mxPoint x="750" y="535" as="sourcePoint" />
            <mxPoint x="824" y="470" as="targetPoint" />
          </mxGeometry>
        </mxCell>
        <mxCell id="4kxy53bT3sSl8HHj_inK-15" value="자식" style="rounded=0;whiteSpace=wrap;html=1;" parent="1" vertex="1">
          <mxGeometry x="420" y="555" width="60" height="30" as="geometry" />
        </mxCell>
        <mxCell id="4kxy53bT3sSl8HHj_inK-16" value="부모" style="rounded=0;whiteSpace=wrap;html=1;" parent="1" vertex="1">
          <mxGeometry x="521" y="555" width="59" height="30" as="geometry" />
        </mxCell>
        <mxCell id="4kxy53bT3sSl8HHj_inK-28" value="primiteveOperation1()" style="html=1;whiteSpace=wrap;" parent="1" vertex="1">
          <mxGeometry x="470" y="265" width="140" height="50" as="geometry" />
        </mxCell>
        <mxCell id="4kxy53bT3sSl8HHj_inK-29" value="# protected&lt;br&gt;&lt;br&gt;+ public" style="text;html=1;strokeColor=none;fillColor=none;align=left;verticalAlign=middle;whiteSpace=wrap;rounded=0;" parent="1" vertex="1">
          <mxGeometry x="420" y="600" width="130" height="40" as="geometry" />
        </mxCell>
      </root>
    </mxGraphModel>
  </diagram>
</mxfile>
